<?xml version="1.0" ?><!DOCTYPE svg  PUBLIC '-//W3C//DTD SVG 20010904//EN'  'http://www.w3.org/TR/2001/REC-SVG-20010904/DTD/svg10.dtd'><svg height="256.000000pt" preserveAspectRatio="xMidYMid meet" version="1.0" viewBox="0 0 256.000000 256.000000" width="256.000000pt" xmlns="http://www.w3.org/2000/svg"><g fill="#000000" stroke="none" transform="translate(0.000000,256.000000) scale(0.100000,-0.100000)"><path d="M2067 2455 c-49 -18 -114 -62 -207 -141 -41 -35 -132 -108 -201 -163 -270 -214 -667 -589 -985 -932 -212 -229 -242 -268 -298 -394 -27 -61 -74 -159 -104 -220 -83 -166 -103 -226 -88 -256 11 -22 9 -28 -28 -72 -81 -96 -95 -138 -56 -177 39 -39 98 -19 192 66 31 27 41 31 65 25 37 -10 55 -4 288 106 289 135 278 129 394 232 177 158 806 793 990 1001 345 388 431 511 431 618 0 51 -2 54 -79 140 -43 48 -101 108 -129 135 -47 43 -55 47 -99 46 -26 0 -65 -7 -86 -14z m5 -339 c88 -75 148 -149 148 -182 0 -25 -95 -133 -380 -432 -91 -95 -190 -201 -220 -234 -87 -97 -731 -718 -744 -718 -6 0 -27 25 -46 56 -52 86 -117 153 -208 211 -69 45 -81 56 -73 71 13 24 146 167 385 415 260 270 719 700 914 858 l73 59 37 -19 c20 -11 72 -49 114 -85z"/></g></svg>